<?xml version="1.0" encoding="utf-8"?>
<!-- Generator: Adobe Illustrator 16.0.0, SVG Export Plug-In . SVG Version: 6.00 Build 0)  -->
<!DOCTYPE svg PUBLIC "-//W3C//DTD SVG 1.1//EN" "http://www.w3.org/Graphics/SVG/1.1/DTD/svg11.dtd">
<svg version="1.1" xmlns="http://www.w3.org/2000/svg" xmlns:xlink="http://www.w3.org/1999/xlink" x="0px" y="0px"
	 width="100%" height="100%" viewBox="0 0 783.078 342.035" style="enable-background:new 0 0 783.078 342.035;"
	 xml:space="preserve">
<style type="text/css">
<![CDATA[
	.st0{fill:none;stroke:#FF90B0;stroke-width:3;stroke-miterlimit:10;}
	.st1{fill:#FFD0E4;stroke:#FF90B0;stroke-width:3;stroke-miterlimit:10;}
	.st2{fill:#FFFFFF;stroke:#FE90AE;stroke-width:4;stroke-miterlimit:10;}
	.st3{fill:#FFFFFF;stroke:#FE90AE;stroke-width:3;stroke-miterlimit:10;}
	.st4{fill:#FFFFFF;stroke:#FF90B0;stroke-width:3;stroke-miterlimit:10;}
	.st5{fill:#FF90B0;}
	.st6{fill:#FFFFFF;}
	.st7{fill:none;stroke:#FF90B0;stroke-width:5;stroke-miterlimit:10;}
	.st8{fill:none;stroke:#FE90AE;stroke-width:3;stroke-linecap:round;stroke-miterlimit:10;}
	.st9{fill:none;stroke:#FE90AE;stroke-width:4;stroke-miterlimit:10;}
	.st10{fill:#FF90B0;stroke:#FF90B0;stroke-width:4;stroke-linecap:round;stroke-miterlimit:10;}
	.st11{fill:#FFD0E4;stroke:#FE90AE;stroke-width:4;stroke-miterlimit:10;}
	.st12{fill:#FFFFFF;stroke:#FF90B0;stroke-width:5;stroke-miterlimit:10;}
]]>
</style>
<g id="Layer_4">
</g>
<g id="Layer_2">
	
		<image style="overflow:visible;" width="1000" height="2550" xlink:href="../41f6ec28369767.55c4642d85253.jpg"  transform="matrix(1 0 0 1 -110.7822 -18.7456)">
	</image>
</g>
<g id="Layer_3">
	<path class="st2" d="M171.965,1190.929c0,7.112-5.68,12.876-12.686,12.876h-57.876c-28.83,0-21.353,16.949-12.686-12.876v-58.742
		c0-7.11,5.68-12.876,12.686-12.876h57.876c7.006,0,12.686,5.766,12.686,12.876V1190.929z"/>
	<g>
		<path class="st11" d="M496.628,1202.001c0,0,24.912-11.24,22.919-26.977c-1.993-14.612-17.05-12.141-24.025-4.271l0,0
			c-6.975-7.869-22.029-9.973-24.023,4.64c-1.993,15.736,22.352,25.48,22.352,25.48L496.628,1202.001z"/>
	</g>
	<g>
		<path class="st11" d="M124.128,1176.462c0,0,24.912-11.24,22.919-26.977c-1.993-14.612-17.05-12.141-24.025-4.271l0,0
			c-6.975-7.869-22.029-9.973-24.023,4.64c-1.993,15.736,22.352,25.48,22.352,25.48L124.128,1176.462z"/>
	</g>
	<g>
		<path class="st11" d="M554.211,1202.001c0,0,24.912-11.24,22.919-26.977c-1.993-14.612-17.05-12.141-24.025-4.271l0,0
			c-6.975-7.869-22.029-9.973-24.023,4.64c-1.993,15.736,22.352,25.48,22.352,25.48L554.211,1202.001z"/>
	</g>
	<g>
		<path class="st2" d="M142.225,1182.741c0,0,16.621-7.499,15.291-17.998c-1.33-9.749-11.375-8.1-16.029-2.85l0,0
			c-4.653-5.25-14.697-6.653-16.028,3.096c-1.33,10.499,14.912,16.999,14.912,16.999L142.225,1182.741z"/>
	</g>
	<polygon class="st1" points="349.073,886.148 353.218,910.253 372.968,890.253 	"/>
	<line class="st0" x1="359.723" y1="964.436" x2="423.218" y2="900.246"/>
	<circle class="st1" cx="427.49" cy="896.787" r="5"/>
	<circle class="st1" cx="358.026" cy="969.254" r="5"/>
	<path class="st4" d="M427.218,891.787c-71.594,1.137-74.192,76.468-74.192,76.468S367.74,903.149,427.218,891.787z"/>
	<polyline class="st0" points="411.218,964.254 415.218,953.254 427.218,949.254 	"/>
	<polyline class="st0" points="418.218,970.254 423.218,961.254 363.147,900.199 	"/>
	<line class="st0" x1="433.218" y1="956.254" x2="423.218" y2="961.254"/>
	<path class="st9" d="M564.886,1163.756c0-19.529-17.965-35.333-40.167-35.333c-22.386,0-40.5,15.804-40.5,35.333"/>
	<path class="st9" d="M557.706,1166.167c0-16.214-15.006-29.911-33.154-29.911c-18.332,0-33.166,15.395-33.166,31.608"/>
	<path class="st9" d="M549.093,1166.836c0-11.931-11.051-23.832-24.707-23.832c-13.565,0-24.543,11.232-24.543,23.163"/>
	<path class="st9" d="M541.093,1163.756c0-7.094-7.473-12.834-16.707-12.834c-8.937,0-16.168,6.049-16.168,13.522"/>
	<path class="st0" d="M119.231,734.523c-3.14,2.073-7.095,3.43-11.139,3.43c-10.991,0-19.9-8.91-19.9-19.901
		c0-10.991,8.91-19.901,19.9-19.901c10.991,0,19.901,8.91,19.901,19.901c0,3.211-0.833,6.534-2.184,9.219"/>
	<path class="st0" d="M132.458,701.461c3.149-2.091,6.928-3.309,10.991-3.309c10.991,0,19.901,8.91,19.901,19.901
		c0,10.991-8.91,19.901-19.901,19.901c-10.991,0-19.9-8.91-19.9-19.901c0-3.298,0.803-6.409,2.222-9.147"/>
	<path class="st0" d="M125.771,694.415c4.919-3.711,11.042-5.912,17.679-5.912c16.227,0,29.381,13.154,29.381,29.381
		c0,16.227-13.154,29.381-29.381,29.381c-16.227,0-29.381-13.154-29.381-29.381c0-6.084,1.849-11.735,5.016-16.424"/>
	<path class="st0" d="M125.771,741.354c-4.919,3.711-11.042,5.911-17.679,5.911c-16.227,0-29.381-13.154-29.381-29.381
		c0-16.228,13.154-29.381,29.381-29.381c16.227,0,29.381,13.154,29.381,29.381c0,6.184-1.911,11.921-5.173,16.654"/>
	<g>
		<polyline class="st5" points="108.135,667.004 121.218,667.004 126.343,678.129 108.092,689.629 		"/>
		<polyline class="st5" points="108.725,667.004 95.642,667.004 90.517,678.129 108.767,689.629 		"/>
	</g>
	<polygon class="st6" points="108.135,678.588 118.186,678.588 113.16,682.504 108.135,686.421 103.109,682.504 98.083,678.588 	"/>
	<polygon class="st6" points="108.135,676.421 99.083,676.421 103.609,673.338 108.135,670.255 112.661,673.338 117.187,676.421 	
		"/>
	<polygon class="st6" points="117.372,671.731 115.128,669.488 116.928,669.931 118.729,670.375 119.172,672.175 119.615,673.975 	
		"/>
	<polygon class="st6" points="98.885,671.735 96.642,673.979 97.084,672.179 97.528,670.379 99.328,669.936 101.128,669.492 	"/>
	<line class="st10" x1="81.218" y1="654.337" x2="89.135" y2="662.171"/>
	<line class="st10" x1="107.571" y1="642.548" x2="107.63" y2="653.686"/>
	<line class="st10" x1="134.976" y1="654.16" x2="127.143" y2="662.077"/>
	<line class="st9" x1="423.314" y1="672.448" x2="423.11" y2="711.123"/>
	<line class="st9" x1="374.074" y1="719.048" x2="374.336" y2="694.254"/>
	<g>
		<path class="st11" d="M362.003,733.254c0,0,13.119-5.919,12.071-14.207c-1.052-7.696-8.98-6.394-12.654-2.25l0,0
			c-3.672-4.144-11.601-5.252-12.651,2.443c-1.05,8.288,11.771,13.419,11.771,13.419L362.003,733.254z"/>
	</g>
	<g>
		<path class="st11" d="M411.263,724.365c0,0,13.119-5.919,12.071-14.207c-1.052-7.696-8.979-6.394-12.654-2.25l0,0
			c-3.673-4.144-11.601-5.252-12.651,2.443c-1.05,8.288,11.771,13.419,11.771,13.419L411.263,724.365z"/>
	</g>
	<path class="st9" d="M374.336,693.254"/>
	<polygon class="st2" points="373.913,674.814 423.237,652.504 423.237,672.448 374.462,694.758 	"/>
	<g id="XMLID_1_">
		<g>
		</g>
		<g>
			<path class="st7" d="M565.835,215.165v43.68c0,6.3-5.57,11.41-12.44,11.41h-59.119c-6.87,0-12.44-5.11-12.44-11.41v-43.68v-10.5
				c0-6.3,5.57-11.41,12.44-11.41h59.119c6.87,0,12.44,5.11,12.44,11.41V215.165z"/>
			<line class="st7" x1="481.835" y1="215.165" x2="565.835" y2="215.165"/>
		</g>
	</g>
	<g>
		<path class="st2" d="M525.253,246.3c0,0,12.476-5.629,11.478-13.51c-0.998-7.318-8.538-6.08-12.032-2.139l0,0
			c-3.492-3.94-11.032-4.994-12.03,2.324c-0.998,7.881,11.193,12.76,11.193,12.76L525.253,246.3z"/>
	</g>
	<path class="st12" d="M501.835,205.254c0,2.761-2.238,5-5,5l0,0c-2.762,0-5-2.239-5-5v-15c0-2.761,2.238-5,5-5l0,0
		c2.762,0,5,2.239,5,5V205.254z"/>
	<path class="st12" d="M528.835,205.254c0,2.761-2.238,5-5,5l0,0c-2.762,0-5-2.239-5-5v-15c0-2.761,2.238-5,5-5l0,0
		c2.762,0,5,2.239,5,5V205.254z"/>
	<path class="st12" d="M556.835,205.254c0,2.761-2.238,5-5,5l0,0c-2.762,0-5-2.239-5-5v-15c0-2.761,2.238-5,5-5l0,0
		c2.762,0,5,2.239,5,5V205.254z"/>
	<line class="st8" x1="490.586" y1="228.746" x2="505.164" y2="228.746"/>
	<line class="st8" x1="490.586" y1="242" x2="505.164" y2="242"/>
	<line class="st8" x1="490.586" y1="255.915" x2="505.164" y2="255.915"/>
	<line class="st8" x1="516.546" y1="255.915" x2="531.124" y2="255.915"/>
	<line class="st8" x1="543.257" y1="255.915" x2="557.835" y2="255.915"/>
	<line class="st8" x1="543.257" y1="242" x2="557.835" y2="242"/>
	<line class="st8" x1="543.257" y1="228.746" x2="557.835" y2="228.746"/>
	<rect x="89.97" y="227.462" class="st0" width="71.173" height="26.997"/>
	<rect x="101.259" y="206.601" class="st0" width="48.594" height="20.861"/>
	<rect x="113.285" y="189.421" class="st0" width="24.542" height="17.18"/>
	<g>
		<path class="st3" d="M125.666,186.891c0,0,8.854-3.995,8.145-9.587c-0.708-5.193-6.059-4.315-8.538-1.518l0,0
			c-2.479-2.797-7.829-3.544-8.538,1.649c-0.708,5.592,7.943,9.055,7.943,9.055L125.666,186.891z"/>
	</g>
</g>
</svg>
