<?xml version="1.0" encoding="utf-8"?>
<!-- Generator: Adobe Illustrator 16.0.0, SVG Export Plug-In . SVG Version: 6.00 Build 0)  -->
<!DOCTYPE svg PUBLIC "-//W3C//DTD SVG 1.1//EN" "http://www.w3.org/Graphics/SVG/1.1/DTD/svg11.dtd">
<svg version="1.1" xmlns="http://www.w3.org/2000/svg" xmlns:xlink="http://www.w3.org/1999/xlink" x="0px" y="0px" width="104px"
	 height="115.906px" viewBox="0 0 104 115.906" style="enable-background:new 0 0 104 115.906;" xml:space="preserve">
<style type="text/css">
<![CDATA[
	.st0{fill:none;stroke:#FF90B0;stroke-width:3;stroke-miterlimit:10;}
	.st1{fill:#FFD0E4;stroke:#FF90B0;stroke-width:3;stroke-miterlimit:10;}
	.st2{fill:#FFFFFF;stroke:#FE90AE;stroke-width:4;stroke-miterlimit:10;}
	.st3{fill:#FFFFFF;stroke:#FF90B0;stroke-width:3;stroke-miterlimit:10;}
	.st4{fill:#FF90B0;}
	.st5{fill:#FFFFFF;}
	.st6{fill:none;stroke:#FF90B0;stroke-width:5;stroke-miterlimit:10;}
	.st7{fill:none;stroke:#FE90AE;stroke-width:4;stroke-miterlimit:10;}
	.st8{fill:#FF90B0;stroke:#FF90B0;stroke-width:4;stroke-linecap:round;stroke-miterlimit:10;}
	.st9{fill:#FFD0E4;stroke:#FE90AE;stroke-width:4;stroke-miterlimit:10;}
	.st10{display:none;}
	.st11{fill:#FFFFFF;stroke:#FF90B0;stroke-width:5;stroke-miterlimit:10;}
]]>
</style>
<g id="Layer_4">
</g>
<g id="Layer_2" class="st10">
	
		<image style="display:inline;overflow:visible;" width="1000" height="2550" xlink:href="../41f6ec28369767.55c4642d85253.jpg"  transform="matrix(1 0 0 1 -183.5 -655.0938)">
	</image>
</g>
<g id="Layer_3">
	<path class="st2" d="M99.247,554.581c0,7.112-5.68,12.876-12.686,12.876H28.686c-28.83,0-21.353,16.949-12.686-12.876v-58.742
		c0-7.11,5.68-12.876,12.686-12.876h57.876c7.006,0,12.686,5.766,12.686,12.876V554.581z"/>
	<g>
		<path class="st9" d="M423.91,565.653c0,0,24.912-11.24,22.919-26.977c-1.993-14.612-17.05-12.141-24.025-4.271l0,0
			c-6.975-7.869-22.029-9.973-24.023,4.64c-1.993,15.736,22.352,25.48,22.352,25.48L423.91,565.653z"/>
	</g>
	<g>
		<path class="st9" d="M51.41,540.114c0,0,24.912-11.24,22.919-26.977c-1.993-14.612-17.05-12.141-24.025-4.271l0,0
			c-6.975-7.869-22.029-9.973-24.023,4.64c-1.993,15.736,22.352,25.48,22.352,25.48L51.41,540.114z"/>
	</g>
	<g>
		<path class="st9" d="M481.493,565.653c0,0,24.912-11.24,22.919-26.977c-1.993-14.612-17.05-12.141-24.025-4.271l0,0
			c-6.975-7.869-22.029-9.973-24.023,4.64c-1.993,15.736,22.352,25.48,22.352,25.48L481.493,565.653z"/>
	</g>
	<g>
		<path class="st2" d="M69.507,546.393c0,0,16.621-7.499,15.291-17.998c-1.33-9.749-11.375-8.1-16.029-2.85l0,0
			c-4.653-5.25-14.697-6.653-16.028,3.096c-1.33,10.499,14.912,16.999,14.912,16.999L69.507,546.393z"/>
	</g>
	<polygon class="st1" points="276.355,249.8 280.5,273.905 300.25,253.905 	"/>
	<line class="st0" x1="287.005" y1="328.088" x2="350.5" y2="263.897"/>
	<circle class="st1" cx="354.772" cy="260.438" r="5"/>
	<circle class="st1" cx="285.308" cy="332.906" r="5"/>
	<path class="st3" d="M354.5,255.438c-71.594,1.137-74.192,76.468-74.192,76.468S295.022,266.801,354.5,255.438z"/>
	<polyline class="st0" points="338.5,327.906 342.5,316.906 354.5,312.906 	"/>
	<polyline class="st0" points="345.5,333.906 350.5,324.906 290.429,263.851 	"/>
	<line class="st0" x1="360.5" y1="319.906" x2="350.5" y2="324.906"/>
	<path class="st6" d="M493.5-377.501c0,6.3-5.572,11.408-12.444,11.408h-59.111c-6.872,0-12.444-5.107-12.444-11.408v-54.185
		c0-6.3,5.572-11.408,12.444-11.408h59.111c6.872,0,12.444,5.107,12.444,11.408V-377.501z"/>
	<path class="st11" d="M429.5-431.094c0,2.761-2.238,5-5,5l0,0c-2.762,0-5-2.239-5-5v-15c0-2.761,2.238-5,5-5l0,0
		c2.762,0,5,2.239,5,5V-431.094z"/>
	<path class="st11" d="M456.5-431.094c0,2.761-2.238,5-5,5l0,0c-2.762,0-5-2.239-5-5v-15c0-2.761,2.238-5,5-5l0,0
		c2.762,0,5,2.239,5,5V-431.094z"/>
	<path class="st11" d="M484.5-431.094c0,2.761-2.238,5-5,5l0,0c-2.762,0-5-2.239-5-5v-15c0-2.761,2.238-5,5-5l0,0
		c2.762,0,5,2.239,5,5V-431.094z"/>
	<line class="st11" x1="410.5" y1="-421.094" x2="492.5" y2="-421.094"/>
	<line class="st11" x1="418.5" y1="-408.094" x2="432.5" y2="-408.094"/>
	<line class="st11" x1="418.5" y1="-394.094" x2="432.5" y2="-394.094"/>
	<line class="st11" x1="419.5" y1="-381.094" x2="433.5" y2="-381.094"/>
	<line class="st11" x1="445.5" y1="-381.094" x2="459.5" y2="-381.094"/>
	<line class="st11" x1="470.5" y1="-381.094" x2="484.5" y2="-381.094"/>
	<line class="st11" x1="470.5" y1="-394.094" x2="484.5" y2="-394.094"/>
	<line class="st11" x1="470.5" y1="-408.094" x2="484.5" y2="-408.094"/>
	<path class="st11" d="M451.5-389.094c0,0,8-3,11-12c0,0,2-12-10-6c0,0-9-6-13,5C439.5-402.094,442.5-390.094,451.5-389.094z"/>
	<path class="st7" d="M492.168,527.408c0-19.529-17.965-35.333-40.167-35.333c-22.386,0-40.5,15.804-40.5,35.333"/>
	<path class="st7" d="M484.988,529.819c0-16.214-15.006-29.911-33.154-29.911c-18.332,0-33.166,15.395-33.166,31.608"/>
	<path class="st7" d="M476.375,530.488c0-11.931-11.051-23.832-24.707-23.832c-13.565,0-24.543,11.232-24.543,23.163"/>
	<path class="st7" d="M468.375,527.408c0-7.094-7.473-12.834-16.707-12.834c-8.937,0-16.168,6.049-16.168,13.522"/>
	<path class="st0" d="M46.514,98.175c-3.14,2.073-7.095,3.43-11.139,3.43c-10.991,0-19.9-8.91-19.9-19.901
		c0-10.991,8.91-19.901,19.9-19.901c10.991,0,19.901,8.91,19.901,19.901c0,3.211-0.833,6.534-2.184,9.219"/>
	<path class="st0" d="M59.74,65.113c3.149-2.091,6.928-3.309,10.991-3.309c10.991,0,19.901,8.91,19.901,19.901
		c0,10.991-8.91,19.901-19.901,19.901c-10.991,0-19.9-8.91-19.9-19.901c0-3.298,0.803-6.409,2.222-9.147"/>
	<path class="st0" d="M53.053,58.066c4.919-3.711,11.042-5.912,17.679-5.912c16.227,0,29.381,13.154,29.381,29.381
		c0,16.227-13.154,29.381-29.381,29.381c-16.227,0-29.381-13.154-29.381-29.381c0-6.084,1.849-11.735,5.016-16.424"/>
	<path class="st0" d="M53.054,105.006c-4.919,3.711-11.042,5.911-17.679,5.911c-16.227,0-29.381-13.154-29.381-29.381
		c0-16.228,13.154-29.381,29.381-29.381c16.227,0,29.381,13.154,29.381,29.381c0,6.184-1.911,11.921-5.173,16.654"/>
	<g>
		<polyline class="st4" points="35.417,30.656 48.5,30.656 53.625,41.781 35.375,53.281 		"/>
		<polyline class="st4" points="36.007,30.656 22.924,30.656 17.799,41.781 36.049,53.281 		"/>
	</g>
	<polygon class="st5" points="35.417,42.24 45.468,42.24 40.442,46.156 35.417,50.073 30.392,46.156 25.366,42.24 	"/>
	<polygon class="st5" points="35.417,40.073 26.366,40.073 30.892,36.99 35.417,33.907 39.943,36.99 44.469,40.073 	"/>
	<polygon class="st5" points="44.654,35.383 42.41,33.14 44.21,33.583 46.011,34.027 46.454,35.827 46.897,37.627 	"/>
	<polygon class="st5" points="26.167,35.387 23.924,37.631 24.367,35.831 24.811,34.031 26.61,33.587 28.411,33.144 	"/>
	<line class="st8" x1="8.5" y1="17.989" x2="16.417" y2="25.823"/>
	<line class="st8" x1="34.853" y1="6.2" x2="34.912" y2="17.337"/>
	<line class="st8" x1="62.258" y1="17.812" x2="54.425" y2="25.729"/>
	<line class="st7" x1="350.597" y1="36.1" x2="350.393" y2="74.774"/>
	<line class="st7" x1="301.356" y1="82.7" x2="301.618" y2="57.906"/>
	<g>
		<path class="st9" d="M289.286,96.906c0,0,13.119-5.919,12.071-14.207c-1.052-7.696-8.98-6.394-12.654-2.25l0,0
			c-3.672-4.144-11.601-5.252-12.651,2.443c-1.05,8.288,11.771,13.419,11.771,13.419L289.286,96.906z"/>
	</g>
	<g>
		<path class="st9" d="M338.545,88.017c0,0,13.119-5.919,12.071-14.207c-1.052-7.696-8.979-6.394-12.654-2.25l0,0
			c-3.673-4.144-11.601-5.252-12.651,2.443c-1.05,8.288,11.771,13.419,11.771,13.419L338.545,88.017z"/>
	</g>
	<path class="st7" d="M301.618,56.906"/>
	<polygon class="st2" points="301.195,38.466 350.52,16.156 350.52,36.1 301.744,58.41 	"/>
</g>
</svg>
